<?xml version="1.0" standalone="no"?>
<!DOCTYPE svg PUBLIC "-//W3C//DTD SVG 20010904//EN"
 "http://www.w3.org/TR/2001/REC-SVG-20010904/DTD/svg10.dtd">
<svg version="1.0" xmlns="http://www.w3.org/2000/svg"
 width="952.000000pt" height="1586.000000pt" viewBox="0 0 952.000000 1586.000000"
 preserveAspectRatio="xMidYMid meet">

<g transform="translate(0.000000,1586.000000) scale(0.100000,-0.100000)"
fill="#000000" stroke="none">
<path d="M0 7930 l0 -7930 4760 0 4760 0 0 2925 c0 2779 -1 2925 -17 2925 -17
1 -17 1 -1 14 17 12 18 50 18 545 0 465 -2 531 -15 531 -19 0 -19 16 0 24 13
5 15 67 15 481 0 468 0 475 -20 475 -25 0 -25 12 0 35 14 12 20 31 20 57 0 36
-2 39 -21 33 -15 -5 -19 -4 -15 4 4 6 14 11 22 11 12 0 14 68 14 475 0 468 0
475 -20 475 -25 0 -25 12 0 35 25 23 29 101 5 91 -8 -3 -15 -1 -15 5 0 5 7 12
15 15 13 5 15 308 14 2513 0 1378 -4 2512 -8 2520 -6 9 -11 4 -19 -17 -13 -39
-43 -55 -75 -43 -25 10 -37 36 -37 81 0 73 80 96 111 32 12 -23 18 -28 22 -17
4 8 6 379 7 825 l0 810 -4760 0 -4760 0 0 -7930z m541 7340 c22 -12 27 -66 7
-72 -9 -3 -8 -9 5 -22 37 -38 7 -86 -55 -86 -49 0 -50 18 0 22 32 3 37 7 40
31 3 23 -1 28 -27 33 -34 7 -42 24 -12 24 10 0 24 7 31 15 19 23 -6 48 -42 41
-30 -6 -40 9 -10 17 30 8 43 7 63 -3z m298 0 c29 0 41 -121 15 -158 -23 -33
-76 -30 -95 4 -37 70 2 174 59 158 8 -2 17 -4 21 -4z m-134 -10 c-4 -6 -19 -9
-33 -8 -23 3 -27 -1 -30 -24 -3 -24 0 -28 22 -28 16 0 32 -9 42 -26 16 -24 16
-27 -3 -52 -15 -20 -30 -28 -61 -30 -25 -2 -42 1 -42 7 0 6 13 11 29 11 42 0
61 9 61 30 0 26 -27 50 -57 50 -21 0 -24 3 -19 23 3 12 6 30 6 40 0 14 9 17
46 17 28 0 43 -4 39 -10z m8495 -505 c0 -60 -3 -75 -15 -75 -11 0 -15 12 -15
51 0 42 -3 52 -20 56 -25 7 -26 30 -2 36 50 13 52 11 52 -68z m147 63 c4 -7 9
-39 10 -71 2 -53 1 -58 -22 -67 -16 -6 -35 -5 -55 1 l-31 11 7 62 c4 33 9 64
11 69 7 12 71 8 80 -5z m137 -10 c30 -42 12 -113 -32 -129 -18 -7 -28 -3 -48
16 -28 28 -31 63 -9 105 20 38 66 42 89 8z m-8930 -310 c8 -13 8 -23 -1 -38
-10 -15 -10 -24 4 -48 9 -16 14 -36 10 -45 -10 -25 -51 -41 -84 -32 -23 7 -25
9 -8 12 65 12 66 13 63 41 -2 21 -9 28 -30 30 -28 3 -40 22 -15 22 25 0 48 25
41 44 -5 13 -15 17 -35 14 -28 -4 -36 1 -22 16 13 13 66 1 77 -16z m146 2 c29
-29 28 -117 -1 -149 -16 -17 -28 -21 -48 -16 -38 9 -51 32 -51 92 0 41 5 57
22 73 28 25 52 26 78 0z m145 6 c12 -9 19 -30 23 -67 3 -45 0 -59 -18 -81 -26
-33 -49 -35 -80 -8 -18 16 -24 31 -24 68 -2 83 47 126 99 88z m7328 -163 c-35
-2 -91 -2 -125 0 -35 2 -7 3 62 3 69 0 97 -1 63 -3z m1172 -74 c0 -8 -6 -15
-12 -15 -30 -3 -33 -4 -33 -13 0 -5 13 -11 29 -14 54 -11 49 -90 -6 -103 -56
-14 -95 73 -55 122 33 41 77 54 77 23z m-145 -64 c0 -60 -3 -75 -15 -75 -12 0
-15 13 -15 55 0 48 -2 55 -20 55 -11 0 -20 4 -20 10 0 12 30 29 53 30 15 0 17
-10 17 -75z m-1250 -377 c0 -242 0 -3044 0 -3640 l0 -368 -129 0 -130 0 -1
2108 c0 1160 3 2111 6 2115 4 4 63 7 131 7 l123 0 0 -222z m-7396 -84 c26 -25
19 -51 -25 -99 l-42 -45 36 0 c20 0 39 -4 42 -10 4 -6 -15 -10 -49 -10 -31 0
-56 3 -56 6 0 3 18 26 40 51 42 48 50 82 24 104 -12 10 -20 10 -34 1 -18 -11
-36 -2 -23 12 12 12 72 6 87 -10z m126 7 c-29 -5 -36 -11 -38 -33 -2 -20 0
-26 10 -23 15 6 68 -37 68 -53 0 -5 -9 -21 -21 -36 -16 -20 -29 -26 -60 -26
-21 0 -39 5 -39 11 0 6 11 8 29 4 20 -4 34 -1 45 10 34 34 9 75 -45 75 -17 0
-20 4 -15 23 3 12 6 30 6 40 0 14 8 17 48 16 44 -2 45 -2 12 -8z m174 -13 c21
-29 20 -102 0 -133 -37 -57 -109 -14 -109 65 0 78 72 122 109 68z m8615 -15
c52 -43 31 -143 -29 -143 -59 0 -82 89 -35 135 29 30 36 30 64 8z m-269 -68
c0 -60 -3 -75 -15 -75 -11 0 -15 12 -15 50 0 39 -4 52 -20 60 -35 19 -21 35
33 39 15 1 17 -9 17 -74z m150 37 c0 -21 5 -43 10 -48 14 -14 -10 -64 -31 -64
-9 0 -19 9 -22 20 -3 13 -11 18 -26 15 -33 -6 -35 16 -5 68 19 36 31 47 50 47
21 0 24 -4 24 -38z m-1720 -96 c19 -1 -23 -3 -95 -4 -71 -1 -125 2 -119 6 11
6 132 6 214 -2z m-257 -1889 l2 -1887 -127 0 -128 0 0 373 c0 404 0 3400 0
3405 0 1 56 1 125 0 l126 -3 2 -1888z m810 1886 c-34 -2 -93 -2 -130 0 -37 2
-9 3 62 3 72 0 102 -1 68 -3z m1015 -486 c2 -64 0 -77 -13 -77 -12 0 -15 12
-15 55 0 48 -2 55 -20 55 -11 0 -20 6 -20 13 0 15 38 37 55 33 6 -1 11 -37 13
-79z m134 71 c27 -22 30 -53 8 -81 -25 -32 -25 -37 0 -37 11 0 20 -7 20 -15 0
-12 -13 -15 -55 -15 -30 0 -55 3 -55 6 0 4 16 24 35 45 49 54 45 77 -12 70
-20 -3 -15 27 5 32 30 8 38 7 54 -5z m158 -29 c13 -31 7 -83 -11 -106 -15 -17
-63 -17 -79 2 -6 8 -14 32 -17 54 -5 33 -1 44 19 64 33 33 72 26 88 -14z
m-2695 -1671 l0 -1658 -127 0 -128 0 0 1660 0 1661 128 -3 127 -3 0 -1657z
m-6243 1515 c26 -23 22 -46 -16 -96 -19 -25 -32 -48 -29 -51 4 -3 19 -6 35 -6
15 0 28 -4 28 -10 0 -5 -25 -10 -55 -10 -34 0 -55 4 -55 11 0 7 18 32 41 56
30 33 39 51 37 71 -3 24 -7 27 -41 26 -30 -1 -35 1 -26 12 16 19 59 18 81 -3z
m150 0 c27 -24 26 -125 -2 -153 -47 -47 -100 -6 -100 78 0 72 58 115 102 75z
m147 -9 c23 -30 28 -92 10 -127 -48 -90 -143 -4 -109 98 19 59 65 72 99 29z
m5431 -144 c0 -5 -5 -10 -11 -10 -5 0 -7 5 -4 10 3 6 8 10 11 10 2 0 4 -4 4
-10z m195 0 c4 -6 -9 -10 -32 -9 -38 1 -38 1 -8 9 17 4 31 8 32 9 1 0 5 -3 8
-9z m-97 -7 c-15 -2 -42 -2 -60 0 -18 2 -6 4 27 4 33 0 48 -2 33 -4z m1150 0
c-10 -2 -26 -2 -35 0 -10 3 -2 5 17 5 19 0 27 -2 18 -5z m640 0 c-32 -2 -84
-2 -115 0 -32 2 -6 3 57 3 63 0 89 -1 58 -3z m1172 -213 c25 -25 27 -95 3
-122 -52 -57 -121 31 -82 105 22 42 48 48 79 17z m131 1 c19 -15 24 -29 24
-66 0 -51 -20 -75 -61 -75 -29 0 -45 21 -51 69 -5 33 -1 44 20 65 31 31 38 32
68 7z m-271 -66 c0 -60 -3 -75 -15 -75 -11 0 -15 12 -15 48 0 26 -5 54 -10 62
-5 8 -10 11 -10 7 0 -5 -5 -5 -10 -2 -17 11 9 35 36 35 23 0 24 -3 24 -75z
m-2980 -1380 l0 -1355 -130 0 -130 0 0 1355 0 1355 130 0 130 0 0 -1355z
m-5690 985 c0 -53 -4 -90 -10 -90 -6 0 -10 30 -10 71 0 64 -2 71 -21 76 -21 6
-21 7 -4 20 39 28 45 18 45 -77z m180 80 c0 -5 -16 -10 -36 -10 -31 0 -35 -3
-32 -22 2 -13 11 -24 23 -27 17 -3 55 -36 55 -48 0 -2 -7 -17 -15 -32 -15 -31
-46 -44 -82 -35 -30 8 -21 23 10 17 28 -5 57 19 57 48 0 21 -44 44 -68 34 -12
-4 -13 1 -8 26 3 17 6 38 6 45 0 10 13 14 45 14 25 0 45 -4 45 -10z m148 -20
c20 -38 10 -120 -18 -142 -29 -23 -33 -23 -66 5 -34 29 -39 98 -11 141 24 36
75 34 95 -4z m4782 -1230 l0 -1170 -128 0 -129 0 -1 1161 c-2 638 0 1165 3
1170 4 5 62 9 131 9 l124 0 0 -1170z m65 1090 c-3 -5 -10 -10 -16 -10 -5 0 -9
5 -9 10 0 6 7 10 16 10 8 0 12 -4 9 -10z m700 1 c-6 -5 -28 -6 -50 -1 l-40 8
50 1 c29 1 45 -3 40 -8z m35 -1 c0 -5 -4 -10 -10 -10 -5 0 -10 5 -10 10 0 6 5
10 10 10 6 0 10 -4 10 -10z m620 -1 c0 -8 -27 -9 -87 -5 -48 4 -89 9 -92 11
-2 3 37 5 87 5 60 0 92 -4 92 -11z m600 4 c0 -5 -56 -9 -125 -9 -69 -1 -125 2
-125 7 0 5 56 9 125 9 69 0 125 -3 125 -7z m570 -2 c-19 -11 -240 -10 -240 1
0 4 57 8 128 8 77 0 121 -4 112 -9z m1119 -7 c9 -8 9 -120 -1 -131 -28 -35
-106 -1 -93 41 4 12 6 36 6 54 -1 25 3 34 21 41 20 8 55 6 67 -5z m108 10 c28
-8 47 -55 39 -99 -11 -55 -59 -72 -96 -33 -30 33 -23 106 14 130 13 9 15 9 43
2z m-4395 -456 c2 -167 2 -642 0 -1055 l-2 -753 -128 0 -127 0 2 763 c1 419 3
894 3 1055 l0 292 125 0 125 0 2 -302z m4283 -98 c3 -6 -6 -15 -22 -21 l-28
-11 31 -13 c47 -19 56 -53 24 -85 -55 -55 -124 17 -89 94 16 35 70 58 84 36z
m129 -6 c45 -45 22 -144 -34 -144 -24 0 -60 46 -60 76 0 36 17 72 37 77 33 8
41 7 57 -9z m-8767 -53 c18 -23 16 -112 -3 -139 -15 -22 -49 -29 -70 -14 -20
13 -34 50 -34 92 0 75 67 113 107 61z m133 11 c45 -37 34 -156 -16 -168 -35
-9 -53 2 -70 41 -18 43 -10 99 17 126 24 24 41 24 69 1z m-310 -82 c0 -110
-18 -121 -22 -12 -2 55 -7 76 -15 75 -7 -2 -13 1 -13 6 0 5 6 12 13 14 34 14
37 8 37 -83z m3950 65 c7 -4 9 -306 8 -826 l-3 -819 -127 0 -128 0 0 373 c-1
1094 0 1269 6 1279 6 10 226 4 244 -7z m-572 -967 l2 -678 -127 0 -128 0 2
667 c2 368 5 674 8 681 3 9 34 12 122 10 l118 -3 3 -677z m5442 441 c0 -22 5
-39 10 -39 6 0 10 -7 10 -15 0 -8 -4 -15 -9 -15 -5 0 -11 -9 -14 -20 -3 -11
-10 -20 -15 -20 -6 0 -14 9 -17 20 -4 14 -15 20 -36 20 -34 0 -38 17 -12 58
30 48 44 60 64 55 15 -4 19 -14 19 -44z m116 43 c38 -25 44 -90 11 -128 -46
-53 -108 0 -93 81 9 45 50 69 82 47z m-6136 -652 l0 -510 -125 0 -125 0 0 510
0 510 125 0 125 0 0 -510z m-2657 392 c-27 -3 -33 -8 -33 -26 0 -18 7 -25 29
-29 57 -12 63 -75 10 -103 -17 -8 -39 -12 -54 -8 -33 8 -23 22 13 16 35 -5 57
18 48 53 -5 20 -13 25 -36 25 -35 0 -39 6 -33 47 5 33 27 44 68 33 15 -4 12
-6 -12 -8z m177 3 c17 -21 24 -95 11 -128 -6 -15 -22 -33 -36 -39 -23 -10 -29
-9 -52 15 -22 22 -27 35 -27 78 0 42 5 55 23 70 28 23 64 24 81 4z m6810 -155
c0 -5 -5 -10 -11 -10 -5 0 -7 5 -4 10 3 6 8 10 11 10 2 0 4 -4 4 -10z m1682
-147 c23 -21 23 -34 -3 -67 -21 -27 -18 -46 7 -46 8 0 14 -4 14 -10 0 -5 -25
-10 -55 -10 -30 0 -55 4 -55 8 0 4 16 23 35 42 50 48 47 76 -7 71 -18 -2 -24
10 -11 22 12 13 56 7 75 -10z m137 3 c7 -8 15 -30 18 -50 8 -49 -17 -86 -57
-86 -41 0 -65 37 -57 88 4 20 14 43 24 49 22 17 58 16 72 -1z m-6729 -346 l0
-260 -125 0 -125 0 0 260 0 260 125 0 125 0 0 -260z m-572 -77 l2 -183 -130 0
-130 0 0 185 0 186 128 -3 127 -3 3 -182z m-1328 -38 c7 -9 15 -37 17 -63 4
-38 1 -53 -17 -74 -44 -57 -102 -23 -103 59 -1 67 15 93 57 93 19 0 39 -7 46
-15z m1323 -314 c6 -6 12 -34 15 -64 4 -46 1 -57 -21 -82 -22 -26 -28 -28 -53
-20 -54 19 -63 127 -14 167 21 17 56 16 73 -1z m561 4 c27 -21 35 -115 12
-150 -21 -31 -58 -33 -86 -3 -30 33 -28 111 5 143 28 28 42 30 69 10z m147 -6
c26 -26 19 -62 -22 -104 -16 -17 -29 -34 -29 -38 0 -4 17 -8 38 -8 l37 -2 -35
-6 c-19 -4 -45 -5 -58 -3 -21 4 -20 6 18 49 33 35 41 50 38 76 -3 29 -6 32
-35 31 -18 -1 -33 2 -33 6 0 7 10 11 53 19 4 0 16 -8 28 -20z m428 -5 c29 -36
29 -116 1 -144 -51 -51 -107 0 -97 89 3 30 12 51 27 63 30 24 45 23 69 -8z
m132 16 c21 -12 25 -50 8 -67 -9 -9 -8 -16 5 -28 22 -23 20 -51 -6 -69 -25
-18 -74 -21 -83 -6 -4 6 5 10 22 8 38 -3 53 8 53 37 0 18 -7 26 -25 31 -31 8
-32 16 -2 29 12 6 22 19 22 30 0 16 -7 20 -32 20 -33 0 -43 9 -20 18 20 9 37
8 58 -3z m437 -10 c17 -17 22 -32 22 -75 0 -62 -22 -95 -65 -95 -54 0 -76 120
-30 165 29 30 45 31 73 5z m572 -2 c28 -31 28 -120 0 -148 -28 -28 -55 -25
-80 8 -41 52 -10 162 46 162 7 0 22 -10 34 -22z m570 2 c15 -15 20 -33 20 -75
0 -88 -55 -125 -100 -67 -41 51 -9 162 46 162 8 0 23 -9 34 -20z m150 13 c0
-5 -15 -15 -32 -23 -44 -21 -46 -38 -6 -42 46 -4 70 -46 48 -85 -21 -38 -71
-44 -94 -11 -18 26 -21 74 -6 113 11 29 90 72 90 48z m420 -13 c15 -15 20 -33
20 -75 0 -42 -5 -60 -20 -75 -47 -47 -95 -8 -94 77 0 46 4 59 23 74 30 24 46
24 71 -1z m610 10 c58 -31 38 -180 -24 -180 -47 0 -74 63 -56 130 14 52 43 70
80 50z m155 -3 c13 -10 16 -22 12 -43 -3 -16 -1 -43 5 -61 10 -27 9 -35 -7
-53 -22 -24 -62 -26 -87 -3 -20 18 -24 48 -7 58 6 4 8 22 4 45 -5 32 -3 40 17
54 27 20 39 20 63 3z m425 -7 c29 -29 31 -121 3 -152 -34 -38 -85 -13 -97 47
-12 56 22 124 62 125 6 0 21 -9 32 -20z m150 0 c28 -28 27 -96 -3 -132 -22
-27 -88 -53 -73 -29 4 6 12 11 18 11 14 0 48 30 48 42 0 4 -13 8 -29 8 -59 0
-79 53 -36 95 29 30 49 31 75 5z m559 10 c15 0 31 -51 31 -95 0 -32 -6 -51
-20 -65 -48 -48 -100 -4 -100 86 0 40 41 90 66 80 9 -3 19 -6 23 -6z m-5199
-85 c0 -50 -4 -85 -10 -85 -6 0 -10 32 -10 76 0 64 -2 75 -15 70 -8 -3 -15 -1
-15 3 0 5 6 12 13 14 34 14 37 7 37 -78z m1734 69 c3 -9 6 -33 6 -55 0 -24 5
-39 12 -39 9 0 9 -3 0 -12 -7 -7 -12 -20 -12 -30 0 -25 -13 -23 -25 5 -7 16
-20 23 -47 25 -21 2 -38 5 -38 8 0 10 83 114 90 114 4 0 11 -7 14 -16z m546 7
c-47 -8 -55 -45 -13 -56 39 -9 53 -23 53 -51 0 -33 -34 -64 -69 -64 -44 0 -47
18 -5 22 48 4 65 29 40 57 -11 12 -30 21 -42 21 -19 0 -23 4 -20 23 3 12 5 30
5 40 1 14 9 17 44 16 l42 -2 -35 -6z m1190 6 c0 -15 -82 -167 -90 -167 -15 0
-13 7 20 69 42 80 42 85 -5 92 -37 6 -36 6 18 8 31 0 57 -1 57 -2z m1570 -82
c0 -104 -18 -114 -22 -12 -2 51 -7 71 -15 70 -14 -3 -17 9 -6 20 3 4 15 7 25
7 16 0 18 -9 18 -85z m570 0 c0 -104 -18 -114 -22 -12 -2 51 -7 71 -15 70 -14
-3 -17 9 -6 20 3 4 15 7 25 7 16 0 18 -9 18 -85z m150 0 c0 -104 -18 -114 -22
-12 -3 62 -5 72 -20 69 -20 -3 -24 14 -5 21 43 18 47 10 47 -78z m1298 -451
c42 -12 22 -20 -36 -16 -42 3 -68 -1 -90 -12 -39 -20 -43 -3 -4 18 28 16 90
20 130 10z m-13 -84 c-16 -18 -16 -20 -1 -26 9 -3 16 -13 16 -21 0 -13 -3 -13
-25 1 -23 15 -27 15 -50 0 -22 -14 -25 -14 -25 -1 0 8 6 17 13 20 9 3 7 9 -5
24 -25 28 -22 33 10 21 23 -9 34 -8 53 6 29 20 39 3 14 -24z m32 -97 c-22 -23
-139 -25 -159 -4 -11 11 -9 12 12 6 35 -11 105 -9 127 4 28 16 39 13 20 -6z
m3 -139 c0 -39 -2 -41 -87 -47 l-63 -5 0 39 c0 21 5 39 10 39 6 0 10 -11 10
-25 0 -18 5 -25 20 -25 16 0 20 7 20 30 0 17 5 30 10 30 6 0 10 -11 10 -24 0
-14 5 -28 10 -31 17 -10 40 15 40 42 0 14 4 21 10 18 6 -3 10 -22 10 -41z
m-76 -89 c79 -20 90 -24 84 -31 -7 -6 -140 26 -152 37 -14 12 -3 11 68 -6z
m-7144 -280 l0 -245 -141 0 c-91 0 -138 4 -134 10 3 6 1 10 -6 10 -6 0 -9 8
-6 20 3 13 0 20 -9 20 -10 0 -14 13 -12 48 l1 47 6 -45 c12 -80 25 118 17 257
l-7 123 146 0 145 0 0 -245z m-322 219 c22 -6 22 -8 20 -158 l-2 -151 -3 148
-4 147 -35 0 c-21 0 -33 4 -29 10 7 11 20 12 53 4z m-161 -126 c-2 -24 -4 -5
-4 42 0 47 2 66 4 43 2 -24 2 -62 0 -85z m76 115 c-13 -2 -33 -2 -45 0 -13 2
-3 4 22 4 25 0 35 -2 23 -4z m7581 -31 c7 -18 15 -30 18 -26 4 3 15 4 24 0 28
-11 3 -23 -59 -29 -53 -5 -59 -4 -68 16 -7 15 -7 31 0 50 9 24 16 28 43 25 25
-2 33 -9 42 -36z m-6866 -88 c31 -21 28 -57 -8 -97 -16 -19 -30 -37 -30 -41 0
-3 14 -6 30 -6 30 0 41 -14 18 -22 -15 -6 -99 0 -106 7 -3 2 14 26 37 53 41
50 54 92 27 92 -8 0 -18 -4 -21 -10 -3 -5 -16 -10 -27 -10 -21 0 -21 0 2 25
27 29 47 31 78 9z m160 -74 c4 -72 -7 -90 -54 -90 -41 0 -54 21 -54 88 0 66
42 104 85 77 16 -10 21 -25 23 -75z m122 -5 c0 -69 -3 -85 -15 -85 -16 0 -16
2 -20 60 -3 56 -4 58 -25 53 -28 -7 -25 7 8 34 46 38 52 32 52 -62z m170 70
c0 -9 -6 -15 -12 -14 -60 8 -77 -19 -21 -33 21 -5 33 -16 37 -32 7 -27 -11
-75 -28 -77 -30 -3 -62 4 -75 17 -22 20 -5 29 25 13 23 -12 27 -11 40 5 23 32
1 58 -42 50 -38 -7 -38 -5 -23 49 10 36 12 37 54 37 34 0 45 -4 45 -15z
m-1090 -94 c0 -108 -17 -112 -19 -6 -1 54 2 85 8 85 7 0 11 -31 11 -79z m-632
12 c3 -10 -20 -13 -92 -13 -80 0 -96 3 -96 15 0 13 15 15 92 13 62 -2 93 -7
96 -15z m482 -103 c0 -5 -4 -10 -10 -10 -5 0 -10 5 -10 10 0 6 5 10 10 10 6 0
10 -4 10 -10z m44 -41 c-8 -14 -30 -10 -45 7 -12 15 -11 16 10 9 18 -5 22 -4
15 6 -7 12 -5 12 9 0 9 -7 14 -17 11 -22z m106 -9 c0 -5 -6 -10 -12 -11 -7 0
-4 -4 7 -9 18 -8 17 -9 -8 -9 -25 -1 -27 1 -17 19 11 21 30 27 30 10z m30 -54
c0 -11 -22 -15 -97 -18 -54 -2 -100 -3 -102 -1 -2 1 -1 9 2 18 9 21 197 23
197 1z m580 -256 c0 -5 -5 -10 -11 -10 -5 0 -7 5 -4 10 3 6 8 10 11 10 2 0 4
-4 4 -10z m310 -235 l0 -245 -165 0 c-103 0 -165 4 -165 10 0 6 -62 11 -162
12 l-163 2 182 5 c100 4 185 9 189 14 4 4 2 7 -4 7 -18 0 -17 316 1 323 6 3 2
6 -10 6 -25 1 -32 21 -8 21 20 0 19 10 -2 27 -10 8 -13 12 -8 9 6 -2 17 -1 25
5 11 6 8 9 -12 9 -14 0 -29 -5 -31 -10 -3 -6 -4 -5 -3 2 1 7 15 14 29 16 15 2
27 10 27 18 0 11 25 14 140 14 l140 0 0 -245z m-422 228 c-43 -2 -113 -2 -155
0 -43 1 -8 3 77 3 85 0 120 -2 78 -3z m80 -52 c9 -1 11 -45 10 -188 l-2 -188
-6 180 -5 180 -157 0 -156 0 -7 -125 c-3 -69 -8 -132 -9 -140 -6 -28 -6 197 0
241 l6 44 157 -1 c86 -1 162 -2 169 -3z m29 -293 c-1 -46 -3 -9 -3 82 0 91 2
128 3 83 2 -46 2 -120 0 -165z m587 232 c36 -13 36 -67 1 -100 -14 -13 -25
-29 -25 -37 0 -7 11 -13 25 -13 14 0 25 -4 25 -10 0 -5 -25 -10 -55 -10 -67 0
-70 11 -15 65 22 21 40 47 40 57 0 26 -30 35 -46 14 -15 -21 -36 -13 -27 10 5
13 21 23 50 33 1 1 13 -3 27 -9z m153 -16 c22 -23 25 -32 21 -80 -5 -55 -24
-83 -59 -84 -34 0 -52 26 -57 83 -4 50 -2 58 21 81 15 14 31 26 37 26 6 0 22
-12 37 -26z m134 4 c6 -113 3 -153 -14 -156 -15 -3 -17 5 -17 58 0 57 -1 61
-20 55 -27 -9 -25 4 7 37 32 34 43 35 44 6z m150 12 c23 -13 27 -45 4 -36 -8
3 -21 9 -29 12 -9 3 -19 -3 -26 -15 -10 -19 -8 -21 16 -21 59 0 88 -72 42
-104 -51 -36 -98 -1 -98 72 0 51 13 80 43 92 29 11 26 11 48 0z m-2263 -117
c3 -10 -20 -13 -92 -13 -80 0 -96 3 -96 15 0 13 15 15 92 13 62 -2 93 -7 96
-15z m889 -215 c-3 -8 -6 -5 -6 6 -1 11 2 17 5 13 3 -3 4 -12 1 -19z m3843
-478 l0 -250 -654 0 -654 0 -16 25 c-13 20 -16 57 -16 228 l0 204 -27 2 c-16
0 -74 4 -130 7 -72 4 -103 3 -103 -5 0 -7 24 -11 64 -11 35 0 84 -3 110 -6
l47 -7 -3 -173 c-2 -96 1 -174 5 -174 5 0 7 -5 5 -11 -2 -7 -69 -12 -196 -15
-106 -2 -190 1 -188 5 3 5 70 12 148 15 79 4 155 13 171 19 27 12 27 13 27
108 0 53 -3 124 -6 158 l-7 61 -88 0 c-53 0 -89 -4 -89 -10 0 -6 -113 -10
-319 -10 -315 0 -319 0 -324 21 -13 49 -14 49 287 50 154 1 363 2 463 1 101 0
186 4 189 9 3 5 278 9 655 9 l649 0 0 -250z m-2890 223 c1 -10 3 -97 4 -193 2
-116 1 -146 -4 -90 l-6 85 -2 -122 c-1 -77 2 -123 8 -123 6 0 10 -4 10 -10 0
-5 -6 -10 -14 -10 -12 0 -15 39 -16 240 0 149 3 240 9 240 5 0 10 -8 11 -17z
m1537 -320 c-1 -54 -3 -12 -3 92 0 105 2 149 3 98 2 -51 2 -136 0 -190z m1671
185 c22 -22 14 -63 -18 -93 -16 -16 -30 -32 -30 -37 0 -4 14 -8 30 -8 20 0 30
-5 30 -15 0 -12 -13 -15 -55 -15 -69 0 -73 18 -15 78 44 45 47 54 26 71 -11 9
-17 8 -29 -4 -19 -18 -37 -20 -37 -2 0 22 22 37 55 37 17 0 36 -5 43 -12z
m141 -6 c10 -18 15 -61 13 -104 -4 -55 -66 -79 -96 -36 -9 12 -16 43 -16 68 0
25 7 56 16 68 19 27 69 30 83 4z m131 -72 c0 -73 -3 -90 -15 -90 -12 0 -15 13
-15 60 0 53 -2 60 -20 60 -26 0 -25 8 2 37 40 43 48 31 48 -67z m170 81 c0 -6
-11 -31 -25 -57 -14 -26 -25 -54 -25 -64 0 -9 -7 -25 -15 -36 -13 -18 -14 -17
-15 16 0 19 9 52 19 72 22 41 19 48 -21 48 -18 0 -28 5 -28 15 0 12 13 15 55
15 30 0 55 -4 55 -9z m-5492 -93 c-3 -9 -34 -14 -96 -16 -77 -2 -92 0 -92 13
0 12 16 15 96 15 72 0 95 -3 92 -12z m2940 -145 c-21 -2 -57 -2 -80 0 -24 2
-7 4 37 4 44 0 63 -2 43 -4z m-128 -27 c0 -14 -29 -16 -242 -18 -255 -2 -551
2 -557 8 -17 15 60 19 403 22 356 3 396 2 396 -12z m565 -55 c-3 -6 -14 -10
-23 -10 -15 1 -15 2 1 6 9 2 17 9 17 15 0 6 3 9 6 5 3 -3 3 -10 -1 -16z
m-1162 2 c-24 -2 -62 -2 -85 0 -24 2 -5 4 42 4 47 0 66 -2 43 -4z m1050 0
c-18 -2 -48 -2 -65 0 -18 2 -4 4 32 4 36 0 50 -2 33 -4z m-390 -10 c-13 -2
-33 -2 -45 0 -13 2 -3 4 22 4 25 0 35 -2 23 -4z m235 -465 l2 -248 -27 0
c-193 -2 -927 1 -929 3 -2 2 -4 107 -5 235 -1 172 2 236 11 247 11 13 75 15
479 13 l466 -3 3 -247z m-1646 2 c14 0 4 -211 -11 -237 -10 -17 -13 87 -13
402 0 102 6 71 9 -47 3 -79 7 -118 15 -118z m675 208 c-3 -8 -6 -5 -6 6 -1 11
2 17 5 13 3 -3 4 -12 1 -19z m-40 -80 c-2 -13 -4 -3 -4 22 0 25 2 35 4 23 2
-13 2 -33 0 -45z m20 5 c-3 -10 -5 -2 -5 17 0 19 2 27 5 18 2 -10 2 -26 0 -35z
m-100 -20 c-3 -10 -5 -2 -5 17 0 19 2 27 5 18 2 -10 2 -26 0 -35z m50 -251
c-1 -53 -3 -7 -3 103 0 110 2 154 3 97 2 -57 2 -147 0 -200z m1303 218 c27
-27 25 -43 -10 -83 -16 -19 -30 -37 -30 -41 0 -3 14 -6 31 -6 24 0 30 -4 27
-17 -3 -15 -14 -18 -57 -18 -34 0 -56 5 -58 12 -3 7 16 34 41 61 31 33 44 55
40 66 -7 18 -40 22 -46 5 -2 -6 -13 -10 -23 -8 -19 4 -19 5 3 27 27 27 56 28
82 2z m136 6 c28 -21 28 -139 0 -159 -22 -16 -56 -11 -73 11 -7 9 -13 40 -13
71 0 79 37 113 86 77z m134 -76 c0 -99 -17 -125 -22 -32 -3 52 -5 57 -25 55
-13 -2 -23 2 -23 8 0 11 50 58 63 59 4 0 7 -40 7 -90z m160 70 c17 -17 18 -24
8 -45 -9 -19 -9 -28 0 -37 16 -16 15 -53 -1 -66 -6 -6 -24 -13 -37 -17 -30 -7
-62 21 -60 51 1 11 1 40 1 66 -1 35 3 50 16 57 27 16 51 13 73 -9z m-1703
-127 c-2 -27 -3 -5 -3 47 0 52 1 74 3 48 2 -27 2 -69 0 -95z m-80 -105 c-1
-46 -3 -11 -3 77 0 88 2 125 3 83 2 -42 2 -114 0 -160z m100 110 c-2 -24 -4
-5 -4 42 0 47 2 66 4 43 2 -24 2 -62 0 -85z m-2122 37 c0 -6 -39 -11 -92 -13
-79 -2 -93 0 -93 13 0 13 14 15 93 13 53 -2 92 -7 92 -13z m2145 -190 c0 -19
-4 -35 -10 -35 -5 0 -10 16 -10 35 0 19 5 35 10 35 6 0 10 -16 10 -35z m1610
-505 l0 -250 -804 0 c-785 0 -805 0 -847 20 -36 17 -39 20 -16 18 l27 -3 1
205 c0 140 -3 205 -10 206 -6 1 -12 2 -13 4 -12 9 -63 14 -180 17 -82 3 -138
8 -138 14 0 6 64 9 175 7 96 -2 175 0 175 5 0 4 367 7 815 7 l815 0 0 -250z
m-2417 223 c-24 -2 -62 -2 -85 0 -24 2 -5 4 42 4 47 0 66 -2 43 -4z m357 -3
c0 -6 60 -10 160 -10 100 0 160 -4 160 -10 0 -6 -86 -10 -239 -10 -177 0 -240
-3 -243 -12 -5 -13 -148 -20 -148 -7 0 4 -3 14 -6 23 -5 14 5 16 75 16 47 0
81 4 81 10 0 6 33 10 80 10 47 0 80 -4 80 -10z m407 -197 c-2 -21 -4 -4 -4 37
0 41 2 58 4 38 2 -21 2 -55 0 -75z m1901 75 c21 -21 14 -72 -13 -98 -32 -30
-31 -38 3 -42 47 -5 25 -23 -33 -26 -30 -2 -55 0 -55 3 0 18 32 64 54 79 32
20 36 66 7 66 -11 0 -23 -4 -26 -10 -9 -14 -25 -12 -25 3 0 21 22 37 50 37 14
0 31 -5 38 -12z m142 -8 c14 -14 20 -33 20 -65 0 -44 -16 -95 -31 -95 -4 0
-14 -3 -22 -6 -9 -3 -25 4 -36 15 -16 16 -21 34 -21 78 0 85 43 120 90 73z
m138 -67 c-2 -70 -6 -88 -18 -88 -15 0 -17 9 -19 83 -1 29 -4 32 -21 27 -27
-9 -25 4 7 37 46 48 54 39 51 -59z m138 79 c50 -33 39 -159 -16 -177 -24 -8
-60 11 -60 30 0 17 21 20 37 4 7 -7 15 -5 27 6 20 21 13 35 -14 28 -26 -7 -60
23 -60 51 0 48 51 82 86 58z m-4191 -188 c0 -73 -1 -129 -3 -124 -2 6 -10 10
-18 10 -11 0 -14 23 -12 128 l2 127 3 -115 c2 -63 7 -118 11 -122 4 -4 6 50 4
120 -2 69 0 123 5 119 4 -5 8 -69 8 -143z m22 79 c-3 -10 -5 -2 -5 17 0 19 2
27 5 18 2 -10 2 -26 0 -35z m-254 18 c5 -1 7 -6 5 -13 -6 -17 -188 -18 -188
-1 0 11 110 22 160 16 8 -1 19 -2 23 -2z m2077 -101 c0 -64 -3 -80 -15 -80
-12 0 -15 14 -15 68 0 57 10 92 27 92 2 0 3 -36 3 -80z m27 -102 c-3 -8 -6 -5
-6 6 -1 11 2 17 5 13 3 -3 4 -12 1 -19z m-1064 -5 c-57 -2 -149 -2 -205 0 -57
1 -11 3 102 3 113 0 159 -2 103 -3z m-703 -20 c-58 -3 -80 -7 -70 -13 13 -8
12 -10 -2 -10 -10 0 -18 7 -18 15 0 12 15 15 88 13 l87 -2 -85 -3z m663 0
c-78 -2 -208 -2 -290 0 -81 1 -17 3 142 3 160 0 226 -2 148 -3z m1048 0 c-11
-5 -11 -7 0 -14 8 -5 -62 -9 -168 -9 -156 0 -183 2 -183 15 0 13 27 15 183 14
100 0 176 -3 168 -6z m-1388 -20 c-45 -2 -122 -2 -170 0 -48 1 -11 3 82 3 94
0 133 -2 88 -3z m620 0 c-13 -2 -35 -2 -50 0 -16 2 -5 4 22 4 28 0 40 -2 28
-4z m5345 -465 l2 -248 -452 -2 -453 -3 3 -35 c2 -19 7 -38 11 -43 4 -4 329
-6 722 -5 l714 3 3 48 c2 26 7 47 13 47 13 0 11 -94 -3 -108 -17 -17 -7349
-17 -7366 0 -17 17 -16 108 1 108 9 0 13 -15 13 -47 l-1 -48 705 -3 c388 -1
714 0 725 2 17 4 20 13 19 51 -1 30 2 45 10 42 6 -2 11 -21 11 -43 0 -21 5
-42 10 -46 14 -11 1417 -9 1434 1 10 6 12 21 8 50 -4 31 -2 41 9 41 10 0 14
-13 14 -44 0 -31 5 -46 16 -50 20 -8 1398 -8 1418 0 10 4 16 18 16 38 0 35 -8
50 -30 59 -12 4 -11 6 3 6 10 1 15 6 12 11 -3 6 3 10 14 10 10 0 28 3 38 6 15
5 15 4 2 -5 -11 -7 -15 -26 -15 -68 l1 -58 720 0 720 0 0 40 0 40 -315 6
c-173 4 -316 7 -318 8 -8 3 13 23 33 31 19 7 23 18 29 78 4 39 4 126 0 195
l-7 125 -181 6 c-233 8 -270 7 -274 -5 -5 -12 -82 -12 -82 0 0 6 19 12 43 14
44 4 -416 12 -683 12 -89 0 -156 4 -158 9 -1 6 79 10 200 10 112 1 183 -2 158
-5 -25 -4 84 -6 242 -5 169 1 284 -3 280 -8 -3 -5 21 -6 58 -3 35 4 93 7 129
7 46 0 61 3 51 10 -21 13 130 16 985 15 l740 0 3 -247z m-3486 228 c-5 -9 127
0 156 11 10 4 13 2 8 -5 -5 -9 15 -12 76 -10 68 1 76 2 43 8 -32 6 -29 7 18 4
31 -2 85 -7 119 -11 36 -3 59 -2 56 3 -4 5 13 7 38 5 24 -1 44 -7 44 -12 0 -5
-88 -9 -200 -9 -171 0 -200 -2 -200 -15 0 -12 -16 -15 -80 -15 -83 0 -111 16
-37 22 23 2 -33 3 -125 3 -92 0 -164 3 -159 8 4 4 24 8 44 9 20 1 37 5 37 10
0 4 38 7 84 6 46 -2 81 -7 78 -12z m1181 7 c-13 -2 -35 -2 -50 0 -16 2 -5 4
22 4 28 0 40 -2 28 -4z m-783 -43 c0 -5 -18 -10 -40 -10 -22 0 -40 5 -40 10 0
6 18 10 40 10 22 0 40 -4 40 -10z m319 6 c-11 -9 -239 -15 -239 -6 0 6 47 10
122 10 67 0 119 -2 117 -4z m638 -2 c-9 -9 -291 -13 -350 -4 -35 5 14 8 152 9
112 0 202 -2 198 -5z m-1586 -74 c5 0 9 -52 9 -119 l0 -120 33 -4 c28 -3 27
-4 -10 -5 -42 -2 -42 -2 -46 -44 -2 -24 -4 49 -4 162 0 113 2 188 4 168 2 -21
8 -38 14 -38z m26 -42 c-2 -24 -4 -7 -4 37 0 44 2 63 4 43 2 -21 2 -57 0 -80z
m3925 45 c26 -23 23 -45 -13 -89 l-31 -39 28 -5 c15 -3 27 -9 26 -15 -2 -13
-112 -19 -112 -7 0 5 18 30 40 55 42 47 52 87 24 87 -9 0 -22 -7 -28 -15 -8
-10 -15 -12 -26 -5 -13 9 -12 13 9 30 28 24 58 26 83 3z m142 -5 c24 -34 21
-123 -4 -148 -46 -46 -90 -8 -90 77 0 63 18 93 56 93 13 0 30 -10 38 -22z
m150 1 c18 -26 7 -61 -32 -101 l-26 -28 38 0 c62 0 38 -25 -27 -28 -70 -4 -72
5 -12 69 29 31 43 54 39 63 -8 20 -43 21 -50 2 -3 -8 -12 -12 -20 -9 -18 7
-18 18 2 37 23 23 70 20 88 -5z m126 11 c41 -22 38 -147 -5 -170 -54 -29 -99
48 -75 129 14 49 40 62 80 41z m-7272 -132 c-3 -9 -34 -14 -96 -16 -77 -2 -92
0 -92 13 0 12 16 15 96 15 72 0 95 -3 92 -12z m5089 -100 c-2 -13 -4 -3 -4 22
0 25 2 35 4 23 2 -13 2 -33 0 -45z m-962 -28 c-3 -5 -13 -10 -21 -10 -8 0 -14
5 -14 10 0 6 9 10 21 10 11 0 17 -4 14 -10z m117 -12 l3 -23 243 -3 c150 -1
242 -6 242 -12 0 -15 -473 -13 -488 2 -9 9 -16 7 -32 -7 -22 -20 -29 -18 -35
14 -2 14 1 21 11 21 8 0 17 7 20 15 9 23 32 18 36 -7z m106 17 c-10 -11 -48
-14 -53 -4 -4 5 8 9 26 9 18 0 30 -2 27 -5z m300 -2 c-42 -2 -114 -2 -160 0
-46 1 -11 3 77 3 88 0 125 -2 83 -3z m-1118 -53 c0 -6 -100 -10 -281 -10 -184
0 -278 3 -274 10 4 6 108 10 281 10 176 0 274 -4 274 -10z m303 -27 c-13 -2
-33 -2 -45 0 -13 2 -3 4 22 4 25 0 35 -2 23 -4z m325 -10 c29 5 33 4 18 -5
-18 -10 -315 -13 -325 -3 -2 3 53 5 123 5 99 0 126 3 120 13 -5 8 -2 7 9 -2
11 -9 30 -12 55 -8z m-1205 -10 c-7 -2 -19 -2 -25 0 -7 3 -2 5 12 5 14 0 19
-2 13 -5z m160 0 c-13 -2 -33 -2 -45 0 -13 2 -3 4 22 4 25 0 35 -2 23 -4z
m620 0 c-24 -2 -62 -2 -85 0 -24 2 -5 4 42 4 47 0 66 -2 43 -4z m677 -5 c0
-11 -136 -7 -152 4 -8 5 19 8 69 6 46 -2 83 -6 83 -10z m1208 -325 c2 -21 -5
-40 -22 -61 -32 -37 -32 -42 -1 -42 14 0 25 -4 25 -10 0 -5 -20 -10 -45 -10
-51 0 -57 12 -22 44 43 40 57 67 46 88 -8 15 -17 18 -35 14 -13 -4 -24 -2 -24
3 0 13 31 19 55 11 13 -5 21 -18 23 -37z m-5768 18 c17 -33 12 -99 -10 -121
-11 -11 -24 -20 -30 -20 -24 0 -50 41 -50 81 0 56 14 79 50 79 19 0 33 -7 40
-19z m1385 10 c-37 -8 -50 -51 -16 -51 24 0 54 -41 46 -63 -9 -23 -63 -43 -78
-28 -8 8 -5 11 15 11 56 0 61 57 7 70 -13 3 -24 11 -23 18 1 7 2 21 3 32 1 16
8 20 39 19 36 -1 36 -2 7 -8z m152 -14 c14 -31 8 -95 -11 -116 -37 -40 -82 -4
-80 65 1 52 17 74 54 74 18 0 30 -7 37 -23z m1263 -59 c0 -95 -17 -97 -22 -3
-2 41 -7 59 -15 58 -7 -2 -13 1 -13 6 0 5 6 12 13 14 34 14 37 7 37 -75z m154
36 c9 -46 -5 -89 -37 -108 -41 -25 -76 79 -46 135 8 15 19 19 42 17 29 -3 33
-7 41 -44z m116 27 c17 -33 12 -99 -10 -121 -32 -32 -50 -24 -72 30 -15 36
-11 68 14 97 16 19 56 16 68 -6z m1200 -56 c0 -43 -4 -75 -10 -75 -6 0 -10 26
-10 59 0 46 -4 60 -17 65 -15 6 -15 8 -3 16 34 22 40 12 40 -65z m123 68 c-27
-4 -33 -9 -33 -28 0 -18 6 -24 28 -27 22 -2 28 -9 30 -34 4 -42 -27 -69 -65
-58 l-28 8 32 4 c59 6 66 66 10 74 -12 2 -21 6 -19 11 1 4 2 18 2 32 0 23 4
25 38 23 36 -1 36 -1 5 -5z m146 -7 c18 -22 23 -78 9 -105 -37 -68 -88 -42
-88 44 0 28 5 56 12 63 16 16 53 15 67 -2z m1349 2 c7 -7 12 -36 12 -65 0 -46
-3 -55 -26 -70 -26 -17 -27 -16 -49 9 -25 29 -28 96 -5 123 15 18 51 20 68 3z
m121 3 c7 -5 15 -28 18 -52 4 -35 0 -50 -17 -71 -26 -33 -34 -34 -60 -8 -22
22 -27 88 -10 121 11 20 45 25 69 10z m1229 -4 c6 -7 9 -22 7 -32 -2 -11 -4
-22 -4 -25 -1 -3 -13 -18 -27 -35 l-26 -30 31 -3 c48 -5 37 -22 -14 -22 -55 0
-57 12 -9 61 30 31 35 42 30 64 -6 24 -11 27 -36 21 -17 -3 -30 -1 -30 4 0 15
66 12 78 -3z m105 6 c-45 -6 -58 -53 -14 -53 44 0 56 -60 16 -86 -24 -16 -65
-12 -65 7 0 6 5 7 11 4 5 -4 21 -4 35 -1 17 5 24 13 24 31 0 20 -6 27 -30 32
-24 4 -30 10 -30 33 0 35 6 40 49 38 36 -1 36 -1 4 -5z m147 -12 c17 -33 12
-99 -9 -120 -25 -25 -59 -17 -73 18 -9 24 -4 93 8 113 10 16 63 8 74 -11z
m-6530 -992 c0 -72 -3 -89 -15 -89 -12 0 -15 13 -15 61 0 60 0 61 -25 55 -15
-4 -25 -2 -25 4 0 14 63 69 72 64 5 -3 8 -45 8 -95z m2290 13 c0 -75 -11 -114
-27 -98 -4 4 -8 31 -8 59 0 48 -2 52 -22 50 -13 -2 -23 2 -23 7 0 14 63 69 72
64 5 -3 8 -40 8 -82z m-2569 68 c28 -15 23 -50 -12 -98 l-31 -42 31 0 c21 0
31 -5 31 -15 0 -12 -13 -15 -60 -15 -33 0 -60 3 -60 8 0 11 29 51 62 87 32 35
33 38 14 54 -11 10 -19 7 -35 -10 -18 -20 -21 -20 -27 -5 -14 37 41 60 87 36z
m143 -6 c11 -11 16 -35 16 -79 0 -56 -3 -65 -25 -79 -32 -21 -41 -20 -65 4
-25 25 -28 114 -4 148 18 26 56 29 78 6z m309 10 c3 -3 -5 -24 -19 -45 -13
-21 -29 -59 -36 -84 -7 -26 -18 -45 -26 -45 -19 0 -8 58 19 106 10 19 19 37
19 39 0 3 -16 5 -35 5 -24 0 -35 5 -35 15 0 11 13 15 53 15 30 0 56 -3 60 -6z
m1835 -2 c27 -18 24 -60 -8 -95 -16 -19 -30 -37 -30 -40 0 -3 12 -7 28 -9 47
-5 25 -23 -33 -26 -68 -4 -71 8 -15 63 45 43 54 85 20 85 -11 0 -23 -6 -26
-14 -6 -15 -34 -11 -34 4 0 31 66 52 98 32z m146 -14 c31 -44 14 -151 -25
-163 -25 -8 -56 10 -65 37 -10 34 -8 103 5 127 16 29 65 28 85 -1z m286 7 c7
-8 10 -27 7 -42 -3 -15 -1 -36 5 -46 13 -26 2 -64 -23 -78 -45 -24 -102 28
-79 72 6 9 7 31 4 48 -4 19 -2 37 6 46 16 19 64 19 80 0z m1733 -6 c14 -23 1
-66 -28 -91 -33 -28 -31 -38 5 -38 20 0 30 -5 30 -15 0 -12 -13 -15 -60 -15
-35 0 -60 4 -60 10 0 6 21 33 46 60 29 31 44 55 40 65 -6 17 -46 21 -46 5 0
-5 -7 -10 -15 -10 -18 0 -20 21 -3 38 17 17 79 11 91 -9z m133 7 c21 -21 19
-134 -3 -158 -19 -22 -41 -23 -67 -3 -27 21 -35 115 -12 150 19 28 59 34 82
11z m134 -76 c0 -73 -3 -90 -15 -90 -12 0 -15 13 -15 61 0 56 -2 61 -20 56
-26 -7 -25 11 2 40 40 43 48 31 48 -67z m152 73 c13 -12 18 -31 18 -74 0 -50
-3 -60 -26 -78 -32 -25 -42 -26 -66 -4 -27 24 -22 33 18 30 22 -1 39 3 41 11
3 7 -4 12 -17 12 -41 0 -60 18 -60 58 0 21 5 43 12 50 17 17 58 15 80 -5z
m1736 5 c22 -22 13 -66 -19 -103 l-31 -35 31 0 c21 0 31 -5 31 -15 0 -12 -13
-15 -55 -15 -68 0 -71 12 -15 70 44 46 52 80 20 80 -11 0 -23 -7 -26 -15 -8
-19 -23 -19 -30 0 -14 36 64 63 94 33z m140 -1 c6 -7 12 -41 13 -75 2 -48 -2
-66 -16 -82 -23 -26 -47 -25 -71 1 -23 26 -27 127 -5 152 16 20 64 22 79 4z
m155 -8 c14 -22 1 -66 -28 -95 -32 -32 -31 -34 5 -34 20 0 30 -5 30 -15 0 -12
-13 -15 -55 -15 -68 0 -71 13 -15 74 44 48 47 57 24 77 -14 11 -19 9 -34 -11
-17 -22 -19 -23 -25 -7 -4 9 -1 24 6 33 16 19 78 15 92 -7z m121 15 c43 -16
39 -151 -5 -174 -46 -25 -79 14 -79 93 0 68 34 100 84 81z m-6849 -454 c3 -5
6 -197 6 -426 0 -362 2 -415 14 -410 11 4 8 -4 -6 -23 -18 -25 -23 -55 -35
-198 -7 -92 -21 -247 -29 -343 -9 -96 -18 -209 -21 -250 -9 -123 -8 -121 -57
-114 -292 42 -551 231 -677 496 -104 218 -116 465 -34 685 118 317 374 525
709 578 102 16 122 17 130 5z m2240 0 c8 -13 8 -867 0 -880 -3 -5 1 -51 9
-102 21 -130 61 -383 81 -513 10 -60 23 -144 30 -185 14 -91 14 -90 -114 -91
-154 -1 -273 27 -405 93 -213 107 -363 276 -440 496 -41 114 -50 172 -49 302
1 190 48 345 154 502 120 177 337 321 544 362 137 26 181 30 190 16z m2214 -3
c6 -8 8 -16 5 -20 -3 -3 -1 -15 6 -26 8 -15 8 -21 0 -21 -9 0 -10 -102 -5
-374 4 -206 4 -392 1 -413 -7 -37 -8 -38 -49 -38 -23 0 -91 -9 -152 -19 -60
-9 -135 -21 -165 -26 -30 -5 -160 -25 -288 -45 -128 -21 -235 -35 -238 -33 -3
3 -7 43 -10 89 -13 193 64 440 184 587 139 172 304 278 502 321 149 32 193 36
209 18z m2173 -429 c3 -423 4 -443 22 -446 10 -2 16 0 12 6 -3 6 10 19 29 31
19 11 35 16 35 10 0 -6 -9 -13 -21 -16 -16 -5 -18 -8 -7 -15 10 -8 9 -9 -4 -4
-22 7 -36 -33 -17 -45 25 -16 -2 -9 -30 7 -27 16 -29 15 -207 -94 -98 -60
-205 -125 -237 -143 -32 -19 -66 -39 -75 -44 -9 -6 -39 -23 -67 -40 -27 -16
-80 -48 -118 -72 -37 -24 -71 -43 -76 -43 -11 0 -63 107 -85 175 -59 184 -60
357 -4 545 81 270 302 495 578 585 53 18 188 42 242 44 l28 1 2 -442z m-4292
416 c0 -2 -13 -4 -30 -4 -16 0 -30 4 -30 8 0 5 14 7 30 4 17 -2 30 -6 30 -8z
m-2252 -1 c-10 -2 -28 -2 -40 0 -13 2 -5 4 17 4 22 1 32 -1 23 -4z m4465 0
c-13 -2 -33 -2 -45 0 -13 2 -3 4 22 4 25 0 35 -2 23 -4z m-2173 -7 c0 -2 -9
-6 -20 -9 -11 -3 -18 -1 -14 4 5 9 34 13 34 5z m55 -16 c-3 -4 1 -11 7 -13 8
-4 7 -6 -4 -6 -11 -1 -16 6 -15 18 0 11 5 17 9 15 5 -3 6 -9 3 -14z m2165 9
c-11 -7 -3 -9 30 -5 25 3 36 2 25 -1 -11 -3 -22 -9 -25 -14 -3 -4 -23 -2 -45
5 -36 13 -37 14 -15 19 42 7 46 7 30 -4z m-2087 -16 c-7 -2 -21 -2 -30 0 -10
3 -4 5 12 5 17 0 24 -2 18 -5z m-160 -10 c-7 -2 -21 -2 -30 0 -10 3 -4 5 12 5
17 0 24 -2 18 -5z m2382 -11 c-9 -9 -38 -12 -55 -6 -11 4 -12 7 -2 13 14 9 66
2 57 -7z m-2175 -16 c0 -3 -4 -8 -10 -11 -5 -3 -10 -1 -10 4 0 6 5 11 10 11 6
0 10 -2 10 -4z m2272 -6 c6 0 8 -3 4 -7 -4 -4 10 -16 31 -25 21 -10 27 -15 13
-11 -14 4 -41 7 -60 6 -29 -1 -31 0 -10 6 l24 7 -24 18 c-16 12 -19 16 -7 12
10 -3 24 -6 29 -6z m-4437 -10 c-3 -5 -14 -10 -23 -9 -14 0 -13 2 3 9 27 11
27 11 20 0z m2125 -10 c0 -5 -2 -10 -4 -10 -3 0 -8 5 -11 10 -3 6 -1 10 4 10
6 0 11 -4 11 -10z m2270 6 c0 -2 -9 -6 -20 -9 -11 -3 -18 -1 -14 4 5 9 34 13
34 5z m5 -36 c19 -8 19 -9 -2 -9 -12 -1 -25 4 -28 9 -7 12 2 12 30 0z m161
-49 c28 -22 17 -36 -22 -27 -15 4 -24 14 -24 26 0 25 15 25 46 1z m-4401 -15
c21 8 19 0 -7 -22 -12 -10 -18 -14 -15 -8 4 7 0 17 -8 24 -8 7 -15 17 -15 22
0 5 7 3 15 -6 9 -8 22 -13 30 -10z m4465 -26 c0 -5 -5 -10 -11 -10 -5 0 -7 5
-4 10 3 6 8 10 11 10 2 0 4 -4 4 -10z m60 -42 c0 -13 -5 -9 -31 19 l-24 26 27
-19 c15 -10 28 -22 28 -26z m-4567 7 c-3 -9 -8 -14 -10 -11 -3 3 -2 9 2 15 9
16 15 13 8 -4z m4502 -4 c-18 -7 -18 -8 -1 -18 22 -12 6 -26 -18 -17 -21 8 -3
44 22 43 14 0 14 -2 -3 -8z m82 -43 c0 -13 -1 -17 -4 -10 -3 6 -12 12 -21 13
-14 0 -13 2 3 9 11 5 20 9 20 9 1 1 1 -9 2 -21z m-14 -28 c3 -11 1 -18 -4 -14
-5 3 -9 12 -9 20 0 20 7 17 13 -6z m57 -1 c0 -5 -7 -9 -15 -9 -9 0 -12 6 -9
15 6 15 24 11 24 -6z m-4699 -12 c-10 -9 -11 -8 -5 6 3 10 9 15 12 12 3 -3 0
-11 -7 -18z m2012 8 c-3 -9 -8 -14 -10 -11 -3 3 -2 9 2 15 9 16 15 13 8 -4z
m2703 -38 c1 -9 -4 -17 -12 -17 -8 0 -14 9 -14 21 0 24 22 21 26 -4z m2178 -1
c-6 -15 -47 -46 -61 -46 -6 0 57 58 64 60 1 0 0 -6 -3 -14z m-4904 -26 c0 -5
-5 -10 -11 -10 -5 0 -7 5 -4 10 3 6 8 10 11 10 2 0 4 -4 4 -10z m2776 -29 c13
-16 7 -44 -7 -36 -4 3 -5 13 -2 23 6 15 5 16 -12 2 -17 -13 -18 -13 -13 1 4 9
1 22 -5 28 -9 9 -7 10 8 5 11 -4 25 -15 31 -23z m2123 -3 c6 -17 4 -25 -8 -29
-23 -9 -37 2 -17 13 9 5 16 14 16 21 0 8 -3 9 -8 1 -4 -6 -16 -14 -26 -18 -19
-7 -19 -6 -1 14 23 26 34 25 44 -2z m-91 -43 c-36 -18 -56 -6 -28 17 17 14 26
16 37 7 11 -10 10 -14 -9 -24z m-4858 -40 c-6 -15 -13 -25 -17 -22 -3 3 -2 14
2 24 9 20 11 27 15 46 1 7 4 6 7 -4 2 -8 -1 -28 -7 -44z m-2065 15 c-3 -5 -11
-10 -16 -10 -6 0 -7 5 -4 10 3 6 11 10 16 10 6 0 7 -4 4 -10z m6858 3 c-22 -8
-14 -23 12 -23 14 0 25 -4 25 -8 0 -11 -32 -12 -46 0 -6 4 -20 5 -30 2 -15 -6
-14 -2 5 14 13 12 29 22 35 21 6 0 6 -3 -1 -6z m-6895 -43 c-7 -10 -14 -17
-17 -15 -4 4 18 35 25 35 2 0 -1 -9 -8 -20z m7138 11 c-4 -5 0 -12 6 -14 7 -3
3 -6 -9 -6 -16 -1 -21 3 -17 14 4 8 10 15 16 15 5 0 7 -4 4 -9z m-2166 -11 c0
-5 -5 -10 -11 -10 -5 0 -7 5 -4 10 3 6 8 10 11 10 2 0 4 -4 4 -10z m-2893 -32
c-3 -8 -6 -5 -6 6 -1 11 2 17 5 13 3 -3 4 -12 1 -19z m4733 -3 c10 -12 10 -15
-4 -15 -9 0 -16 -4 -16 -10 0 -5 -5 -10 -12 -10 -9 0 -9 3 0 12 24 24 11 29
-20 8 l-33 -22 30 26 c35 30 38 31 55 11z m140 5 c0 -5 -4 -10 -10 -10 -5 0
-10 5 -10 10 0 6 5 10 10 10 6 0 10 -4 10 -10z m-1979 -42 c-4 -35 -6 -38 -9
-15 -3 26 3 57 10 57 2 0 1 -19 -1 -42z m2156 20 c-3 -8 -6 -5 -6 6 -1 11 2
17 5 13 3 -3 4 -12 1 -19z m-2177 -10 c0 -16 -3 -19 -11 -11 -6 6 -8 16 -5 22
11 17 16 13 16 -11z m2210 12 c0 -5 -5 -10 -11 -10 -5 0 -7 5 -4 10 3 6 8 10
11 10 2 0 4 -4 4 -10z m-7220 -19 c0 -5 -7 -11 -14 -14 -10 -4 -13 -1 -9 9 6
15 23 19 23 5z m2110 -21 c0 -5 -5 -10 -11 -10 -5 0 -7 5 -4 10 3 6 8 10 11
10 2 0 4 -4 4 -10z m5103 -35 c-7 -21 -13 -19 -13 6 0 11 4 18 10 14 5 -3 7
-12 3 -20z m-2148 5 c3 -5 1 -10 -4 -10 -6 0 -11 5 -11 10 0 6 2 10 4 10 3 0
8 -4 11 -10z m1660 -6 c-19 -15 -18 -16 15 -10 34 5 34 5 8 -6 -16 -7 -28 -15
-28 -20 0 -14 -38 -9 -43 6 -4 11 -1 13 10 9 10 -4 14 -2 9 5 -3 6 2 15 11 21
28 16 40 12 18 -5z m-1689 -35 c0 -24 -19 -7 -23 21 -2 17 0 18 10 9 7 -7 13
-20 13 -30z m-2958 -19 c-14 -43 -28 -47 -15 -5 6 19 14 35 18 35 4 0 3 -14
-3 -30z m-2168 5 c-7 -9 -15 -13 -17 -11 -7 7 7 26 19 26 6 0 6 -6 -2 -15z
m6750 5 c0 -5 -5 -10 -11 -10 -5 0 -7 5 -4 10 3 6 8 10 11 10 2 0 4 -4 4 -10z
m3 -32 c-2 -5 -13 -13 -25 -19 -13 -7 -18 -7 -14 -1 3 6 2 13 -4 17 -5 3 -10
2 -10 -3 0 -5 -10 -12 -22 -15 l-23 -6 22 18 c21 17 86 24 76 9z m565 -6 c2
-7 -4 -15 -13 -18 -20 -8 -27 -1 -19 20 7 18 25 17 32 -2z m-7338 4 c0 -2 -7
-6 -15 -10 -8 -3 -15 -1 -15 4 0 6 7 10 15 10 8 0 15 -2 15 -4z m6815 -16 c3
-5 -1 -10 -9 -10 -9 0 -16 5 -16 10 0 6 4 10 9 10 6 0 13 -4 16 -10z m572 4
c-3 -3 -12 -4 -19 -1 -8 3 -5 6 6 6 11 1 17 -2 13 -5z m-737 -38 c0 -3 -4 -8
-10 -11 -5 -3 -10 -1 -10 4 0 6 5 11 10 11 6 0 10 -2 10 -4z m-34 -145 c-3 -5
1 -14 9 -21 8 -7 15 -17 15 -23 0 -6 -11 0 -25 13 -19 18 -22 26 -13 32 17 10
20 10 14 -1z m751 -40 c0 -11 -5 -18 -9 -15 -4 3 -5 11 -1 19 7 21 12 19 10
-4z m20 -13 c-3 -8 -6 -5 -6 6 -1 11 2 17 5 13 3 -3 4 -12 1 -19z m-2987 -13
c0 -8 -4 -15 -10 -15 -5 0 -7 7 -4 15 4 8 8 15 10 15 2 0 4 -7 4 -15z m-33
-27 c-3 -8 -6 -5 -6 6 -1 11 2 17 5 13 3 -3 4 -12 1 -19z m2343 -13 c13 -14
19 -25 13 -25 -5 0 -20 11 -33 25 -13 14 -19 25 -13 25 5 0 20 -11 33 -25z
m-2333 -27 c-3 -8 -6 -5 -6 6 -1 11 2 17 5 13 3 -3 4 -12 1 -19z m10 -50 c-3
-7 -5 -2 -5 12 0 14 2 19 5 13 2 -7 2 -19 0 -25z m2375 19 c7 -7 24 -21 38
-30 16 -11 19 -17 9 -17 -8 0 -28 14 -44 30 -28 29 -30 44 -3 17z m548 -1 c0
-3 -4 -8 -10 -11 -5 -3 -10 -1 -10 4 0 6 5 11 10 11 6 0 10 -2 10 -4z m-2130
-16 c0 -5 -2 -10 -4 -10 -3 0 -8 5 -11 10 -3 6 -1 10 4 10 6 0 11 -4 11 -10z
m-20 -54 c0 -3 -4 -8 -10 -11 -5 -3 -10 -1 -10 4 0 6 5 11 10 11 6 0 10 -2 10
-4z m1700 -22 c0 -8 -4 -12 -10 -9 -5 3 -10 10 -10 16 0 5 5 9 10 9 6 0 10 -7
10 -16z m-2463 -16 c-3 -8 -6 -5 -6 6 -1 11 2 17 5 13 3 -3 4 -12 1 -19z
m2923 12 c0 -5 -2 -10 -4 -10 -3 0 -8 5 -11 10 -3 6 -1 10 4 10 6 0 11 -4 11
-10z m-2224 -27 c-10 -10 -19 5 -10 18 6 11 8 11 12 0 2 -7 1 -15 -2 -18z
m1789 7 c3 -5 1 -10 -4 -10 -6 0 -11 5 -11 10 0 6 2 10 4 10 3 0 8 -4 11 -10z
m-2478 -52 c-3 -8 -6 -5 -6 6 -1 11 2 17 5 13 3 -3 4 -12 1 -19z m2515 9 c7
-7 24 -21 38 -30 16 -11 19 -17 9 -17 -8 0 -28 14 -44 30 -28 29 -30 44 -3 17z
m-1819 -42 c-3 -9 -8 -14 -10 -11 -3 3 -2 9 2 15 9 16 15 13 8 -4z m-38 -23
c-3 -3 -11 0 -18 7 -9 10 -8 11 6 5 10 -3 15 -9 12 -12z m2181 -10 c9 -5 8
-11 -2 -20 -8 -7 -14 -9 -14 -5 0 4 -5 1 -11 -7 -9 -12 -10 -12 -5 3 3 10 6
23 6 28 0 11 11 11 26 1z m-231 -12 c3 -5 1 -10 -4 -10 -6 0 -11 5 -11 10 0 6
2 10 4 10 3 0 8 -4 11 -10z m-1950 -10 c3 -6 -1 -7 -9 -4 -18 7 -21 14 -7 14
6 0 13 -4 16 -10z m1980 -20 c3 -5 1 -10 -4 -10 -6 0 -11 5 -11 10 0 6 2 10 4
10 3 0 8 -4 11 -10z m158 -35 c-3 -9 -8 -14 -10 -11 -3 3 -2 9 2 15 9 16 15
13 8 -4z m-2776 -17 c-3 -8 -6 -5 -6 6 -1 11 2 17 5 13 3 -3 4 -12 1 -19z
m2667 8 c-3 -7 2 -16 10 -19 8 -3 20 -16 26 -29 10 -19 6 -17 -20 8 -18 18
-29 37 -26 43 10 15 16 14 10 -3z m-2100 -10 c-3 -8 -13 -17 -22 -21 -13 -5
-13 -2 3 15 21 24 26 25 19 6z m2166 -10 c0 -3 -4 -8 -10 -11 -5 -3 -10 -1
-10 4 0 6 5 11 10 11 6 0 10 -2 10 -4z m-2723 -28 c-3 -8 -6 -5 -6 6 -1 11 2
17 5 13 3 -3 4 -12 1 -19z m450 -20 c-3 -8 -6 -5 -6 6 -1 11 2 17 5 13 3 -3 4
-12 1 -19z m91 8 c-7 -8 -15 -12 -17 -11 -5 6 10 25 20 25 5 0 4 -6 -3 -14z
m-528 -16 c0 -5 -4 -10 -10 -10 -5 0 -10 5 -10 10 0 6 5 10 10 10 6 0 10 -4
10 -10z m30 -20 c0 -5 -2 -10 -4 -10 -3 0 -8 5 -11 10 -3 6 -1 10 4 10 6 0 11
-4 11 -10z m-33 -72 c-3 -8 -6 -5 -6 6 -1 11 2 17 5 13 3 -3 4 -12 1 -19z
m350 6 c-3 -3 -12 -4 -19 -1 -8 3 -5 6 6 6 11 1 17 -2 13 -5z m33 -3 c0 -5 -7
-11 -14 -14 -10 -4 -13 -1 -9 9 6 15 23 19 23 5z m-233 -52 c-14 -8 -22 -8
-30 0 -8 8 -3 11 19 11 25 -1 27 -2 11 -11z m65 -35 c-12 -8 -26 -13 -31 -9
-5 3 -12 1 -16 -5 -3 -5 2 -10 12 -11 10 0 13 -3 6 -5 -7 -3 -22 0 -35 7 -22
12 -21 13 22 25 62 17 68 16 42 -2z m28 -8 c0 -2 -7 -7 -16 -10 -8 -3 -12 -2
-9 4 6 10 25 14 25 6z m-103 -32 c-3 -3 -12 -4 -19 -1 -8 3 -5 6 6 6 11 1 17
-2 13 -5z m-6207 -889 c0 -69 -3 -85 -15 -85 -12 0 -15 14 -15 65 0 63 -1 65
-25 65 -31 0 -32 13 -2 28 52 25 57 19 57 -73z m98 -3 c3 -77 2 -82 -18 -82
-18 0 -20 6 -20 65 0 58 -2 65 -20 65 -27 0 -25 14 3 28 45 22 52 13 55 -76z
m97 58 l-29 -30 24 0 c50 0 79 -60 44 -94 -36 -37 -114 -8 -114 41 0 47 49
113 84 113 18 0 17 -3 -9 -30z m175 15 c7 -9 10 -27 7 -45 -4 -16 -2 -32 3
-35 15 -9 12 -42 -6 -59 -20 -21 -78 -20 -99 0 -22 23 1 38 28 19 14 -10 25
-11 39 -4 25 13 23 28 -7 39 -30 11 -32 26 -5 33 11 3 20 13 20 22 0 15 -6 17
-40 11 -41 -6 -50 0 -28 22 17 17 73 15 88 -3z m100 3 c-1 -7 -7 -31 -15 -53
-8 -22 -15 -41 -15 -42 0 -2 11 -3 25 -3 22 0 25 4 25 35 0 24 5 35 15 35 10
0 15 -10 15 -34 0 -19 5 -36 10 -38 14 -4 -11 -58 -27 -58 -7 0 -13 6 -13 14
0 10 -14 16 -42 18 -48 3 -48 4 -21 86 9 28 23 52 30 52 7 0 13 -6 13 -12z
m162 -11 c-28 -30 -28 -33 8 -40 35 -7 49 -45 31 -83 -10 -22 -17 -25 -53 -22
-35 2 -45 8 -56 30 -11 23 -10 33 3 65 20 49 43 73 68 73 20 0 20 0 -1 -23z
m178 8 c0 -11 -11 -15 -40 -15 -29 0 -40 -4 -40 -15 0 -10 10 -15 29 -15 54 0
81 -58 45 -94 -26 -26 -104 -19 -104 10 0 16 14 18 39 4 25 -13 57 11 48 34
-5 13 -16 17 -44 14 -31 -2 -38 0 -37 15 4 83 -1 77 54 77 38 0 50 -4 50 -15z
m140 0 c0 -11 -11 -15 -40 -15 -29 0 -40 -4 -40 -15 0 -10 10 -15 29 -15 36 0
61 -23 61 -55 0 -13 -7 -31 -16 -39 -26 -26 -104 -19 -104 10 0 16 14 18 39 4
25 -13 57 11 48 34 -5 13 -16 17 -44 14 -31 -2 -38 0 -37 15 4 83 -1 77 54 77
38 0 50 -4 50 -15z m141 -2 c8 -9 14 -39 14 -68 0 -29 -6 -59 -14 -68 -16 -20
-74 -22 -90 -4 -28 34 -26 111 5 141 20 21 68 20 85 -1z m109 -68 c0 -69 -3
-85 -15 -85 -12 0 -15 14 -15 65 0 63 -1 65 -25 65 -31 0 -32 13 -2 28 52 25
57 19 57 -73z"/>
<path d="M786 15244 c-10 -10 -16 -33 -16 -64 0 -39 4 -52 22 -64 19 -14 24
-14 36 -2 18 18 20 109 3 130 -17 20 -26 20 -45 0z"/>
<path d="M9296 14803 c-11 -11 -6 -23 9 -23 8 0 15 4 15 9 0 13 -16 22 -24 14z"/>
<path d="M9294 14729 c-8 -14 11 -33 25 -25 11 7 4 36 -9 36 -5 0 -12 -5 -16
-11z"/>
<path d="M9426 14794 c-16 -41 0 -104 23 -90 19 12 12 106 -9 106 -4 0 -11 -7
-14 -16z"/>
<path d="M632 14475 c-23 -51 -5 -125 29 -125 35 0 51 68 29 124 -12 33 -43
34 -58 1z"/>
<path d="M781 14481 c-16 -28 -13 -94 3 -117 32 -42 72 26 57 99 -8 39 -43 50
-60 18z"/>
<path d="M9297 14203 c-15 -15 -6 -43 13 -43 11 0 20 6 20 14 0 17 -24 38 -33
29z"/>
<path d="M786 13734 c-17 -16 -22 -99 -8 -120 13 -19 40 -23 52 -8 16 18 16
110 0 129 -16 19 -25 19 -44 -1z"/>
<path d="M9427 13693 c-10 -9 -8 -66 2 -82 15 -24 31 -1 31 45 0 42 -14 57
-33 37z"/>
<path d="M9295 13660 c-3 -5 -1 -10 4 -10 6 0 11 5 11 10 0 6 -2 10 -4 10 -3
0 -8 -4 -11 -10z"/>
<path d="M9424 13147 c-10 -28 0 -82 16 -82 11 0 15 12 15 44 0 44 -19 68 -31
38z"/>
<path d="M630 12964 c-19 -48 -5 -116 26 -128 31 -12 55 75 35 127 -14 35 -48
36 -61 1z"/>
<path d="M780 12971 c-5 -11 -10 -36 -10 -56 0 -78 51 -106 69 -38 21 76 -27
153 -59 94z"/>
<path d="M9297 12603 c-4 -3 -7 -26 -7 -50 0 -37 3 -44 18 -41 19 4 27 37 18
74 -6 24 -17 30 -29 17z"/>
<path d="M9427 12604 c-4 -4 -7 -27 -7 -51 0 -37 3 -44 18 -41 13 3 17 13 17
47 0 41 -12 61 -28 45z"/>
<path d="M791 12231 c-22 -14 -27 -113 -6 -134 23 -23 54 -6 57 31 2 46 -3 86
-14 100 -12 14 -18 15 -37 3z"/>
<path d="M9292 12048 c5 -15 28 -18 29 -3 0 6 -7 12 -17 13 -10 3 -15 -1 -12
-10z"/>
<path d="M9297 11993 c-4 -3 -7 -12 -7 -20 0 -15 26 -18 34 -4 7 11 -18 33
-27 24z"/>
<path d="M9424 12047 c-10 -28 0 -82 16 -82 11 0 15 12 15 44 0 44 -19 68 -31
38z"/>
<path d="M9297 11454 c-15 -15 -7 -45 11 -42 9 2 17 12 17 22 0 20 -16 31 -28
20z"/>
<path d="M9424 11497 c-10 -28 0 -82 16 -82 11 0 15 12 15 44 0 44 -19 68 -31
38z"/>
<path d="M630 11450 c-25 -60 12 -152 47 -117 35 35 22 147 -17 147 -10 0 -23
-13 -30 -30z"/>
<path d="M780 11461 c-5 -11 -10 -40 -10 -65 0 -35 5 -48 22 -60 33 -23 50 -1
50 63 0 72 -37 109 -62 62z"/>
<path d="M9290 10910 c0 -5 5 -10 10 -10 6 0 10 5 10 10 0 6 -4 10 -10 10 -5
0 -10 -4 -10 -10z"/>
<path d="M9424 10947 c-10 -28 0 -82 16 -82 11 0 15 12 15 44 0 44 -19 68 -31
38z"/>
<path d="M786 10708 c-18 -26 -21 -90 -6 -119 18 -32 48 -24 59 16 21 77 -18
153 -53 103z"/>
<path d="M9431 10406 c-17 -21 -10 -91 9 -91 18 0 26 65 12 90 -7 14 -10 15
-21 1z"/>
<path d="M780 9950 c-18 -35 -8 -110 17 -127 20 -13 23 -12 34 9 7 12 12 42
12 65 0 65 -39 98 -63 53z"/>
<path d="M2099 9611 c-17 -56 -2 -106 31 -106 20 0 26 7 33 36 12 50 -3 103
-31 107 -17 3 -23 -4 -33 -37z"/>
<path d="M2669 9623 c-13 -35 -5 -101 14 -120 13 -13 17 -13 36 6 23 23 28 72
11 115 -13 35 -47 34 -61 -1z"/>
<path d="M3239 9623 c-14 -38 -4 -104 18 -121 16 -11 20 -10 36 9 19 24 23 89
7 120 -16 28 -49 24 -61 -8z"/>
<path d="M3810 9620 c-15 -35 -7 -97 14 -118 37 -37 76 73 46 129 -16 29 -46
24 -60 -11z"/>
<path d="M4384 9625 c-21 -32 -13 -103 13 -123 16 -11 20 -10 36 9 30 38 18
139 -18 139 -8 0 -22 -11 -31 -25z"/>
<path d="M4956 9628 c-29 -41 -12 -128 25 -128 24 0 39 30 39 75 0 69 -34 97
-64 53z"/>
<path d="M5094 9566 c-15 -40 21 -80 54 -60 37 24 21 74 -25 74 -13 0 -26 -6
-29 -14z"/>
<path d="M5532 9637 c-31 -37 -19 -137 17 -137 28 0 41 21 41 68 0 68 -29 104
-58 69z"/>
<path d="M6152 9638 c-7 -7 -12 -35 -12 -63 0 -53 12 -75 42 -75 11 0 20 12
27 37 20 73 -18 140 -57 101z"/>
<path d="M6297 9644 c-14 -15 -6 -43 14 -49 25 -8 42 6 37 31 -3 19 -38 31
-51 18z"/>
<path d="M6296 9554 c-9 -8 -16 -19 -16 -24 0 -5 7 -16 16 -24 8 -9 19 -16 24
-16 11 0 40 29 40 39 0 9 -33 41 -43 41 -3 0 -13 -7 -21 -16z"/>
<path d="M6714 9613 c-22 -51 -5 -113 30 -113 29 0 36 16 36 79 0 77 -40 97
-66 34z"/>
<path d="M6860 9630 c-12 -23 -6 -56 13 -63 24 -9 57 12 57 36 0 46 -50 65
-70 27z"/>
<path d="M7436 9628 c-31 -44 -15 -128 24 -128 25 0 40 29 40 75 0 69 -34 97
-64 53z"/>
<path d="M3972 9592 c-28 -38 -27 -42 2 -42 28 0 39 21 27 51 -7 21 -8 21 -29
-9z"/>
<path d="M9260 8615 c-16 -19 -4 -35 26 -35 26 0 32 18 12 38 -16 16 -23 15
-38 -3z"/>
<path d="M2552 8498 c-14 -14 -16 -86 -3 -107 18 -28 41 -4 41 43 0 69 -12 90
-38 64z"/>
<path d="M3114 7817 c-3 -8 -4 -36 -2 -63 2 -36 7 -49 18 -49 20 0 22 116 3
122 -7 3 -16 -2 -19 -10z"/>
<path d="M3407 7764 c-13 -14 -7 -55 9 -61 21 -8 34 15 25 41 -9 22 -23 30
-34 20z"/>
<path d="M3680 7240 c0 -11 205 -12 425 -1 123 7 107 8 -142 9 -183 1 -283 -2
-283 -8z"/>
<path d="M3023 7145 c0 -44 2 -61 4 -37 2 23 2 59 0 80 -2 20 -4 1 -4 -43z"/>
<path d="M6321 7102 c-13 -25 -14 -81 -2 -101 14 -22 41 -5 42 26 2 47 -2 67
-16 82 -11 11 -15 10 -24 -7z"/>
<path d="M4647 6403 c-10 -10 -8 -96 2 -112 25 -39 55 51 35 103 -6 16 -26 21
-37 9z"/>
<path d="M4930 6390 c0 -13 7 -20 20 -20 13 0 20 7 20 20 0 13 -7 20 -20 20
-13 0 -20 -7 -20 -20z"/>
<path d="M4930 6316 c0 -32 18 -43 37 -23 20 20 10 47 -17 47 -15 0 -20 -7
-20 -24z"/>
<path d="M5277 5713 c-12 -11 -8 -98 5 -111 28 -28 52 50 32 102 -6 16 -26 21
-37 9z"/>
<path d="M5561 5716 c-18 -21 -9 -51 14 -51 24 0 32 36 12 53 -11 10 -17 9
-26 -2z"/>
<path d="M4978 5163 c12 -2 32 -2 45 0 12 2 2 4 -23 4 -25 0 -35 -2 -22 -4z"/>
<path d="M6273 5163 c9 -2 23 -2 30 0 6 3 -1 5 -18 5 -16 0 -22 -2 -12 -5z"/>
<path d="M6058 5143 c34 -2 90 -2 125 0 34 2 6 3 -63 3 -69 0 -97 -1 -62 -3z"/>
<path d="M6263 5143 c9 -2 23 -2 30 0 6 3 -1 5 -18 5 -16 0 -22 -2 -12 -5z"/>
<path d="M8127 5044 c-11 -11 -8 -112 3 -119 6 -4 18 -1 26 6 21 17 16 113 -6
117 -9 1 -19 0 -23 -4z"/>
<path d="M8409 5023 c-14 -36 0 -97 23 -101 13 -2 18 7 23 41 11 72 -24 117
-46 60z"/>
<path d="M981 4396 c-23 -27 -13 -116 13 -116 23 0 36 24 36 65 0 56 -24 81
-49 51z"/>
<path d="M2512 4390 c-16 -26 -15 -70 2 -92 17 -23 33 -23 46 1 20 39 6 111
-23 111 -7 0 -18 -9 -25 -20z"/>
<path d="M3927 4392 c-35 -39 -9 -130 30 -106 32 20 27 124 -7 124 -4 0 -14
-8 -23 -18z"/>
<path d="M4052 4398 c-17 -17 -15 -93 3 -108 22 -18 50 10 49 47 -2 63 -24 89
-52 61z"/>
<path d="M5522 4398 c-17 -17 -15 -80 2 -104 21 -28 50 -7 54 39 5 60 -25 96
-56 65z"/>
<path d="M6870 4391 c-24 -45 -1 -121 33 -108 35 13 28 127 -7 127 -9 0 -20
-9 -26 -19z"/>
<path d="M6994 4398 c-4 -6 -7 -30 -7 -53 0 -49 8 -65 33 -65 22 0 30 19 30
69 0 51 -36 82 -56 49z"/>
<path d="M8472 4398 c-7 -7 -12 -31 -12 -54 0 -72 53 -88 66 -19 4 25 1 42
-10 60 -18 28 -27 30 -44 13z"/>
<path d="M1806 3454 c-10 -27 -7 -89 6 -102 19 -19 38 6 38 48 0 47 -8 70 -25
70 -7 0 -16 -7 -19 -16z"/>
<path d="M4094 3456 c-3 -7 -4 -33 -2 -57 2 -36 7 -44 23 -44 15 0 21 8 23 34
2 19 1 44 -2 57 -7 26 -33 32 -42 10z"/>
<path d="M4391 3470 c-14 -8 -8 -40 7 -40 5 0 15 6 21 14 15 17 -8 39 -28 26z"/>
<path d="M4376 3385 c-9 -24 1 -35 30 -35 21 0 25 4 22 23 -4 27 -42 36 -52
12z"/>
<path d="M6246 3455 c-10 -28 -7 -80 7 -99 12 -16 14 -16 26 -3 18 23 11 111
-10 115 -9 2 -19 -4 -23 -13z"/>
<path d="M6527 3456 c-10 -26 4 -47 27 -44 15 2 21 10 21 28 0 29 -38 41 -48
16z"/>
<path d="M8406 3454 c-11 -29 -6 -83 10 -98 25 -25 34 -10 34 55 0 51 -2 59
-19 59 -10 0 -22 -7 -25 -16z"/>
<path d="M8694 3446 c-11 -44 4 -96 27 -96 18 0 20 6 17 57 -2 45 -7 59 -20
61 -12 2 -19 -5 -24 -22z"/>
<path d="M1359 2261 c-21 -18 -23 -22 -11 -42 10 -15 11 -24 3 -32 -21 -21
-13 -57 15 -67 40 -15 53 -12 66 16 9 20 9 30 0 45 -10 15 -9 23 0 40 11 18
10 23 -11 40 -13 10 -27 19 -31 19 -4 0 -18 -9 -31 -19z m49 -29 c3 -16 -2
-22 -17 -22 -26 0 -36 17 -20 36 16 19 33 13 37 -14z m2 -57 c18 -21 5 -45
-25 -45 -40 0 -34 54 6 59 4 1 12 -6 19 -14z"/>
<path d="M1477 2265 c-35 -25 -10 -96 28 -81 20 7 29 31 21 60 -7 29 -26 38
-49 21z m35 -22 c5 -24 -1 -53 -12 -53 -18 0 -32 40 -19 56 15 19 26 18 31 -3z"/>
<path d="M1242 2225 c-18 -25 -32 -50 -32 -55 0 -6 16 -10 35 -10 28 0 35 -4
35 -19 0 -11 5 -23 10 -26 6 -3 10 2 10 12 0 11 6 25 13 32 10 11 10 14 0 18
-8 3 -13 23 -13 49 0 57 -17 57 -58 -1z m38 -15 c0 -23 -4 -30 -20 -30 -24 0
-25 8 -4 38 20 29 24 28 24 -8z"/>
<path d="M1540 2199 c0 -5 5 -7 10 -4 6 3 10 8 10 11 0 2 -4 4 -10 4 -5 0 -10
-5 -10 -11z"/>
<path d="M1570 2191 c-23 -44 -1 -89 38 -76 24 7 34 39 22 71 -11 29 -45 32
-60 5z m48 -35 c-2 -12 -10 -21 -18 -21 -16 0 -25 28 -16 52 9 23 38 -4 34
-31z"/>
<path d="M1525 2169 c-4 -6 -5 -12 -2 -15 2 -3 7 2 10 11 7 17 1 20 -8 4z"/>
<path d="M3465 2244 c-54 -58 -14 -155 50 -126 53 24 35 106 -21 96 -34 -6
-30 13 9 36 29 18 30 20 9 20 -13 0 -34 -12 -47 -26z m53 -77 c2 -18 -2 -29
-13 -33 -25 -10 -45 16 -34 44 12 32 43 25 47 -11z"/>
<path d="M3598 2260 c-21 -13 -42 -74 -34 -105 8 -33 63 -51 88 -29 39 36 6
104 -43 89 -31 -10 -22 13 14 35 25 16 28 20 12 20 -11 0 -28 -5 -37 -10z m46
-82 c13 -22 -14 -54 -38 -45 -16 6 -22 48 -9 61 11 11 35 3 47 -16z"/>
<path d="M3691 2246 c-10 -18 -10 -29 -2 -45 15 -27 47 -27 61 0 15 27 4 69
-17 69 -13 0 -14 -3 -5 -12 15 -15 16 -55 1 -64 -16 -9 -27 13 -23 47 4 35 1
36 -15 5z"/>
<path d="M3779 2213 c-13 -16 -12 -17 4 -4 16 13 21 21 13 21 -2 0 -10 -8 -17
-17z"/>
<path d="M3802 2198 c-17 -17 -15 -63 2 -77 11 -9 20 -10 35 -1 35 18 23 90
-14 90 -6 0 -16 -5 -23 -12z m41 -20 c5 -17 -3 -48 -13 -48 -15 0 -32 30 -26
45 7 18 33 20 39 3z"/>
<path d="M3760 2179 c0 -5 5 -7 10 -4 6 3 10 8 10 11 0 2 -4 4 -10 4 -5 0 -10
-5 -10 -11z"/>
<path d="M3735 2140 c-3 -5 -1 -10 4 -10 6 0 11 5 11 10 0 6 -2 10 -4 10 -3 0
-8 -4 -11 -10z"/>
<path d="M5705 2470 c-4 -6 7 -10 24 -10 27 0 31 -4 31 -27 0 -18 -13 -40 -37
-65 l-37 -38 54 1 c46 1 49 3 22 8 l-34 6 26 24 c30 28 43 76 26 96 -14 17
-66 20 -75 5z"/>
<path d="M5863 2455 c-10 -14 -26 -35 -35 -47 -28 -33 -23 -48 17 -48 24 0 35
-5 35 -15 0 -8 6 -15 13 -15 14 0 39 48 26 52 -5 2 -10 23 -11 47 -3 53 -19
62 -45 26z m17 -45 c0 -23 -4 -30 -20 -30 -24 0 -25 8 -4 38 20 29 24 28 24
-8z"/>
<path d="M5954 2472 c-18 -12 -24 -42 -14 -63 20 -36 70 -17 70 26 0 35 -30
55 -56 37z m39 -52 c-7 -25 -19 -26 -32 -3 -6 12 -6 24 1 37 10 18 11 19 23 2
7 -9 11 -26 8 -36z"/>
<path d="M6058 2409 c-21 -12 -24 -59 -6 -77 17 -17 33 -15 19 2 -14 17 -11
71 4 71 6 0 11 -17 13 -38 3 -33 5 -36 18 -22 16 16 11 54 -10 67 -14 10 -17
9 -38 -3z"/>
<path d="M7875 2391 c-4 -7 4 -11 19 -11 20 0 26 -5 26 -21 0 -12 -8 -23 -20
-26 -24 -6 -16 -23 11 -23 13 0 19 -7 19 -24 0 -27 -18 -37 -51 -29 -15 4 -20
3 -15 -5 4 -7 23 -12 42 -12 27 0 37 5 46 25 9 21 9 29 -4 42 -13 12 -14 20
-5 34 9 14 9 24 1 37 -13 20 -59 28 -69 13z"/>
<path d="M8001 2391 c-11 -7 -7 -10 15 -13 35 -4 47 -37 15 -45 -27 -7 -27
-21 1 -25 12 -2 23 -8 25 -14 6 -19 -27 -45 -48 -39 -11 4 -19 2 -19 -5 0 -21
71 -7 87 17 13 19 12 24 -6 42 -12 12 -17 21 -12 21 16 0 19 40 4 55 -16 17
-41 19 -62 6z"/>
<path d="M8152 2381 c9 -15 9 -25 0 -47 -7 -14 -11 -28 -9 -31 8 -7 37 28 37
43 0 21 -19 54 -30 54 -6 0 -5 -8 2 -19z"/>
<path d="M8112 2378 c-15 -15 -15 -30 1 -52 11 -15 12 -12 12 24 0 22 0 40 0
40 -1 0 -6 -5 -13 -12z"/>
<path d="M8214 2313 c-17 -41 -3 -76 28 -71 28 4 42 29 34 61 -8 32 -49 38
-62 10z m44 -5 c11 -15 -2 -58 -17 -58 -12 0 -19 29 -13 53 5 20 16 22 30 5z"/>
<path d="M6810 2850 c0 -5 5 -10 11 -10 5 0 7 5 4 10 -3 6 -8 10 -11 10 -2 0
-4 -4 -4 -10z"/>
<path d="M547 419 c-37 -21 -2 -68 35 -48 10 5 18 16 18 24 0 21 -32 35 -53
24z"/>
<path d="M983 423 c-7 -3 -13 -15 -13 -28 0 -13 6 -25 13 -28 22 -7 47 5 47
24 0 20 -28 39 -47 32z"/>
<path d="M1401 461 c-16 -29 -13 -67 5 -86 21 -21 37 -15 48 18 20 55 -28 115
-53 68z"/>
<path d="M9420 14206 c0 -40 3 -46 21 -46 18 0 20 5 17 42 -2 31 -8 44 -20 46
-15 3 -18 -4 -18 -42z"/>
</g>
</svg>
